<svg xmlns="http://www.w3.org/2000/svg" width="1000" height="500" viewBox="0 0 1000 500" role="img" aria-labelledby="dg-title dg-desc">
<title id="dg-title">Deepgram Usage</title>
<desc id="dg-desc">Illustration of read-only usage analytics over a bounded date range of at most 31 days. A date slider selects eight days. Usage in hours and tokens is drawn as bars on the left, and billed dollars as separate bars on the right. A faint waveform is only background context; nothing is transcribed. Illustrative synthetic data.</desc>
<style>
.dg-s{font-family:"Avenir Next","Segoe UI","Helvetica Neue",Arial,sans-serif}
.dg-m{font-family:ui-monospace,"SF Mono",Menlo,Consolas,"Courier New",monospace}
.dg-sweep{animation:dg-sweep 7s ease-in-out infinite}
@keyframes dg-sweep{0%{transform:translateX(0);opacity:1}72%{transform:translateX(204px);opacity:1}84%{transform:translateX(204px);opacity:0}99%{transform:translateX(0);opacity:0}100%{transform:translateX(0);opacity:1}}
.dg-row{animation:dg-row 7s steps(1,end) infinite}
@keyframes dg-row{0%{transform:translateY(0)}9%{transform:translateY(27px)}18%{transform:translateY(54px)}27%{transform:translateY(81px)}36%{transform:translateY(108px)}45%{transform:translateY(135px)}54%{transform:translateY(162px)}63%{transform:translateY(189px)}72%,100%{transform:translateY(0)}}
.dg-bl{transform-box:fill-box;transform-origin:100% 50%;animation:dg-b 4.2s ease-in-out infinite}
.dg-br{transform-box:fill-box;transform-origin:0% 50%;animation:dg-b 4.2s ease-in-out infinite}
@keyframes dg-b{0%,100%{transform:scaleX(1)}50%{transform:scaleX(.88)}}
.dg-win{animation:dg-win 7s ease-in-out infinite}
@keyframes dg-win{0%,100%{fill-opacity:.2}50%{fill-opacity:.32}}
@media (prefers-reduced-motion:reduce){*{animation:none!important}}
</style>
<rect width="1000" height="500" fill="#F1E8FF"/>
<text class="dg-s" x="36" y="72" font-size="50" font-weight="800" fill="#12184A" letter-spacing="-1.5">Deepgram <tspan fill="#006D77">Usage</tspan></text>
<text class="dg-s" x="36" y="108" font-size="18" font-weight="600" fill="#12184A">Explain speech usage and spend without sending another audio file.</text>
<rect x="664" y="34" width="300" height="30" rx="15" fill="#12184A"/>
<text class="dg-s" x="814" y="54" font-size="13" font-weight="800" fill="#B6F03C" text-anchor="middle" letter-spacing=".4">ILLUSTRATIVE / SYNTHETIC DATA</text>
<text class="dg-s" x="964" y="92" font-size="14" font-weight="800" fill="#C2006B" text-anchor="end">read-only Management API</text>

<rect x="36" y="124" width="928" height="86" rx="20" fill="#fff" stroke="#12184A" stroke-width="3"/>
<g fill="#006D77" fill-opacity=".10"><rect x="52.0" y="164.0" width="7" height="10.0" rx="3.5"/><rect x="67.6" y="146.9" width="7" height="44.3" rx="3.5"/><rect x="83.2" y="144.9" width="7" height="48.2" rx="3.5"/><rect x="98.8" y="141.5" width="7" height="54.9" rx="3.5"/><rect x="114.4" y="150.3" width="7" height="37.5" rx="3.5"/><rect x="130.0" y="155.8" width="7" height="26.4" rx="3.5"/><rect x="145.6" y="159.1" width="7" height="19.7" rx="3.5"/><rect x="161.2" y="159.7" width="7" height="18.5" rx="3.5"/><rect x="176.8" y="153.3" width="7" height="31.4" rx="3.5"/><rect x="192.4" y="151.4" width="7" height="35.2" rx="3.5"/><rect x="208.0" y="147.9" width="7" height="42.2" rx="3.5"/><rect x="223.6" y="158.9" width="7" height="20.1" rx="3.5"/><rect x="239.2" y="151.6" width="7" height="34.7" rx="3.5"/><rect x="254.8" y="146.8" width="7" height="44.5" rx="3.5"/><rect x="270.4" y="136.5" width="7" height="65.0" rx="3.5"/><rect x="286.0" y="142.5" width="7" height="53.0" rx="3.5"/><rect x="301.6" y="147.7" width="7" height="42.6" rx="3.5"/><rect x="317.2" y="159.3" width="7" height="19.4" rx="3.5"/><rect x="332.8" y="154.2" width="7" height="29.6" rx="3.5"/><rect x="348.4" y="153.0" width="7" height="31.9" rx="3.5"/><rect x="364.0" y="158.4" width="7" height="21.3" rx="3.5"/><rect x="379.6" y="156.3" width="7" height="25.3" rx="3.5"/><rect x="395.2" y="158.9" width="7" height="20.3" rx="3.5"/><rect x="410.8" y="157.1" width="7" height="23.8" rx="3.5"/><rect x="426.4" y="154.3" width="7" height="29.3" rx="3.5"/><rect x="442.0" y="140.5" width="7" height="57.0" rx="3.5"/><rect x="457.6" y="142.0" width="7" height="54.0" rx="3.5"/><rect x="473.2" y="141.8" width="7" height="54.5" rx="3.5"/><rect x="488.8" y="154.7" width="7" height="28.7" rx="3.5"/><rect x="504.4" y="154.2" width="7" height="29.6" rx="3.5"/><rect x="520.0" y="147.2" width="7" height="43.6" rx="3.5"/><rect x="535.6" y="145.9" width="7" height="46.2" rx="3.5"/><rect x="551.2" y="149.1" width="7" height="39.8" rx="3.5"/><rect x="566.8" y="157.7" width="7" height="22.6" rx="3.5"/><rect x="582.4" y="158.2" width="7" height="21.6" rx="3.5"/><rect x="598.0" y="161.2" width="7" height="15.6" rx="3.5"/><rect x="613.6" y="150.6" width="7" height="36.8" rx="3.5"/><rect x="629.2" y="150.2" width="7" height="37.6" rx="3.5"/><rect x="644.8" y="143.0" width="7" height="52.0" rx="3.5"/><rect x="660.4" y="151.9" width="7" height="34.2" rx="3.5"/><rect x="676.0" y="158.4" width="7" height="21.2" rx="3.5"/><rect x="691.6" y="149.0" width="7" height="40.0" rx="3.5"/><rect x="707.2" y="140.3" width="7" height="57.4" rx="3.5"/><rect x="722.8" y="139.9" width="7" height="58.1" rx="3.5"/><rect x="738.4" y="147.1" width="7" height="43.9" rx="3.5"/><rect x="754.0" y="153.7" width="7" height="30.6" rx="3.5"/><rect x="769.6" y="160.5" width="7" height="17.0" rx="3.5"/><rect x="785.2" y="155.5" width="7" height="27.1" rx="3.5"/><rect x="800.8" y="162.6" width="7" height="12.8" rx="3.5"/><rect x="816.4" y="152.2" width="7" height="33.5" rx="3.5"/><rect x="832.0" y="155.5" width="7" height="27.0" rx="3.5"/><rect x="847.6" y="155.0" width="7" height="28.0" rx="3.5"/><rect x="863.2" y="155.7" width="7" height="26.6" rx="3.5"/><rect x="878.8" y="143.2" width="7" height="51.6" rx="3.5"/><rect x="894.4" y="138.6" width="7" height="60.7" rx="3.5"/><rect x="910.0" y="139.8" width="7" height="58.5" rx="3.5"/><rect x="925.6" y="147.0" width="7" height="44.0" rx="3.5"/><rect x="941.2" y="159.9" width="7" height="18.1" rx="3.5"/></g>
<line x1="64" y1="176" x2="936" y2="176" stroke="#12184A" stroke-width="4" stroke-linecap="round"/>
<g stroke="#12184A" stroke-width="2"><line x1="64.0" y1="167" x2="64.0" y2="185"/><line x1="93.1" y1="171" x2="93.1" y2="181"/><line x1="122.1" y1="171" x2="122.1" y2="181"/><line x1="151.2" y1="171" x2="151.2" y2="181"/><line x1="180.3" y1="171" x2="180.3" y2="181"/><line x1="209.3" y1="171" x2="209.3" y2="181"/><line x1="238.4" y1="171" x2="238.4" y2="181"/><line x1="267.5" y1="167" x2="267.5" y2="185"/><line x1="296.5" y1="171" x2="296.5" y2="181"/><line x1="325.6" y1="171" x2="325.6" y2="181"/><line x1="354.7" y1="171" x2="354.7" y2="181"/><line x1="383.7" y1="171" x2="383.7" y2="181"/><line x1="412.8" y1="171" x2="412.8" y2="181"/><line x1="441.9" y1="171" x2="441.9" y2="181"/><line x1="470.9" y1="167" x2="470.9" y2="185"/><line x1="500.0" y1="171" x2="500.0" y2="181"/><line x1="529.1" y1="171" x2="529.1" y2="181"/><line x1="558.1" y1="171" x2="558.1" y2="181"/><line x1="587.2" y1="171" x2="587.2" y2="181"/><line x1="616.3" y1="171" x2="616.3" y2="181"/><line x1="645.3" y1="171" x2="645.3" y2="181"/><line x1="674.4" y1="167" x2="674.4" y2="185"/><line x1="703.5" y1="171" x2="703.5" y2="181"/><line x1="732.5" y1="171" x2="732.5" y2="181"/><line x1="761.6" y1="171" x2="761.6" y2="181"/><line x1="790.7" y1="171" x2="790.7" y2="181"/><line x1="819.7" y1="171" x2="819.7" y2="181"/><line x1="848.8" y1="171" x2="848.8" y2="181"/><line x1="877.9" y1="167" x2="877.9" y2="185"/><line x1="906.9" y1="171" x2="906.9" y2="181"/><line x1="936.0" y1="171" x2="936.0" y2="181"/></g>
<rect class="dg-win" x="267.5" y="158" width="203.5" height="36" rx="8" fill="#006D77" fill-opacity=".2" stroke="#006D77" stroke-width="3"/>
<g fill="#006D77" stroke="#12184A" stroke-width="2.5"><rect x="260.5" y="154" width="14" height="44" rx="7"/><rect x="463.9" y="154" width="14" height="44" rx="7"/></g>
<g class="dg-sweep"><rect x="271.5" y="160" width="4" height="32" rx="2" fill="#C2006B"/></g>
<g class="dg-m" font-size="14" font-weight="800" text-anchor="middle">
<rect x="215.5" y="130" width="104" height="22" rx="11" fill="#12184A"/><text x="267.5" y="146" fill="#fff">2026-01-08</text>
<rect x="418.9" y="130" width="104" height="22" rx="11" fill="#12184A"/><text x="470.9" y="146" fill="#fff">2026-01-15</text>
</g>
<g class="dg-s" font-size="14" font-weight="800" fill="#12184A">
<text x="64" y="203" text-anchor="start">Jan 01</text><text x="936" y="203" text-anchor="end">Jan 31</text>
<text x="668" y="203" text-anchor="middle" fill="#006D77">bounded range: at most 31 days</text>
</g>
<rect x="36" y="218" width="429" height="258" rx="20" fill="#D2F0EE"/>
<rect x="535" y="218" width="429" height="258" rx="20" fill="#FFD3EC"/>
<text class="dg-s" x="500" y="244" font-size="24" font-weight="800" fill="#12184A" text-anchor="middle">≠</text>
<g class="dg-s" font-size="14" font-weight="800">
<text x="52" y="241" font-size="15" fill="#12184A" letter-spacing="1">USAGE</text>
<rect x="116" y="225" width="64" height="22" rx="11" fill="#006D77"/><text x="148" y="241" fill="#fff" text-anchor="middle">42.0 h</text>
<rect x="188" y="225" width="116" height="22" rx="11" fill="#A6E22E"/><text x="246" y="241" fill="#12184A" text-anchor="middle">2.55M tokens</text>
<text x="551" y="241" font-size="15" fill="#12184A" letter-spacing="1">BILLING</text>
<rect x="646" y="225" width="72" height="22" rx="11" fill="#FF4FB0"/><text x="682" y="241" fill="#12184A" text-anchor="middle">$32.90</text>
<text x="728" y="241" fill="#12184A">billed USD</text>
</g>
<g stroke="#12184A" stroke-opacity=".14" stroke-width="2" stroke-dasharray="4 6"><line x1="355" y1="252" x2="355" y2="468"/><line x1="645" y1="252" x2="645" y2="468"/><line x1="255" y1="252" x2="255" y2="468"/><line x1="745" y1="252" x2="745" y2="468"/><line x1="155" y1="252" x2="155" y2="468"/><line x1="845" y1="252" x2="845" y2="468"/></g>
<rect class="dg-row" x="40" y="249" width="920" height="26" rx="8" fill="#B6F03C" fill-opacity=".5"/>
<rect class="dg-bl" x="215.8" y="252" width="239.2" height="13" rx="4" fill="#006D77" style="animation-delay:0.00s"/>
<rect class="dg-bl" x="219.4" y="267" width="235.6" height="6" rx="3" fill="#A6E22E" style="animation-delay:0.00s"/>
<rect class="dg-br" x="545" y="252" width="218.4" height="21" rx="5" fill="#FF4FB0" style="animation-delay:0.00s"/>
<text class="dg-m" x="500" y="268" font-size="14" font-weight="800" fill="#12184A" text-anchor="middle">Jan 08</text>
<text class="dg-s" x="449" y="263" font-size="13" font-weight="800" fill="#fff" text-anchor="end">5.2 h</text>
<text class="dg-s" x="553" y="268" font-size="14" font-weight="800" fill="#12184A">$3.90</text>
<rect class="dg-bl" x="142.2" y="279" width="312.8" height="13" rx="4" fill="#006D77" style="animation-delay:0.18s"/>
<rect class="dg-bl" x="135.8" y="294" width="319.2" height="6" rx="3" fill="#A6E22E" style="animation-delay:0.18s"/>
<rect class="dg-br" x="545" y="279" width="285.6" height="21" rx="5" fill="#FF4FB0" style="animation-delay:0.18s"/>
<text class="dg-m" x="500" y="295" font-size="14" font-weight="800" fill="#12184A" text-anchor="middle">Jan 09</text>
<text class="dg-s" x="449" y="290" font-size="13" font-weight="800" fill="#fff" text-anchor="end">6.8 h</text>
<text class="dg-s" x="553" y="295" font-size="14" font-weight="800" fill="#12184A">$5.10</text>
<rect class="dg-bl" x="266.4" y="306" width="188.6" height="13" rx="4" fill="#006D77" style="animation-delay:0.36s"/>
<rect class="dg-bl" x="265.0" y="321" width="190.0" height="6" rx="3" fill="#A6E22E" style="animation-delay:0.36s"/>
<rect class="dg-br" x="545" y="306" width="179.2" height="21" rx="5" fill="#FF4FB0" style="animation-delay:0.36s"/>
<text class="dg-m" x="500" y="322" font-size="14" font-weight="800" fill="#12184A" text-anchor="middle">Jan 10</text>
<text class="dg-s" x="449" y="317" font-size="13" font-weight="800" fill="#fff" text-anchor="end">4.1 h</text>
<text class="dg-s" x="553" y="322" font-size="14" font-weight="800" fill="#12184A">$3.20</text>
<rect class="dg-bl" x="91.6" y="333" width="363.4" height="13" rx="4" fill="#006D77" style="animation-delay:0.54s"/>
<rect class="dg-bl" x="90.2" y="348" width="364.8" height="6" rx="3" fill="#A6E22E" style="animation-delay:0.54s"/>
<rect class="dg-br" x="545" y="333" width="358.4" height="21" rx="5" fill="#FF4FB0" style="animation-delay:0.54s"/>
<text class="dg-m" x="500" y="349" font-size="14" font-weight="800" fill="#12184A" text-anchor="middle">Jan 11</text>
<text class="dg-s" x="449" y="344" font-size="13" font-weight="800" fill="#fff" text-anchor="end">7.9 h</text>
<text class="dg-s" x="553" y="349" font-size="14" font-weight="800" fill="#12184A">$6.40</text>
<rect class="dg-bl" x="169.8" y="360" width="285.2" height="13" rx="4" fill="#006D77" style="animation-delay:0.72s"/>
<rect class="dg-bl" x="166.2" y="375" width="288.8" height="6" rx="3" fill="#A6E22E" style="animation-delay:0.72s"/>
<rect class="dg-br" x="545" y="360" width="268.8" height="21" rx="5" fill="#FF4FB0" style="animation-delay:0.72s"/>
<text class="dg-m" x="500" y="376" font-size="14" font-weight="800" fill="#12184A" text-anchor="middle">Jan 12</text>
<text class="dg-s" x="449" y="371" font-size="13" font-weight="800" fill="#fff" text-anchor="end">6.2 h</text>
<text class="dg-s" x="553" y="376" font-size="14" font-weight="800" fill="#12184A">$4.80</text>
<rect class="dg-bl" x="298.6" y="387" width="156.4" height="13" rx="4" fill="#006D77" style="animation-delay:0.90s"/>
<rect class="dg-bl" x="303.0" y="402" width="152.0" height="6" rx="3" fill="#A6E22E" style="animation-delay:0.90s"/>
<rect class="dg-br" x="545" y="387" width="151.2" height="21" rx="5" fill="#FF4FB0" style="animation-delay:0.90s"/>
<text class="dg-m" x="500" y="403" font-size="14" font-weight="800" fill="#12184A" text-anchor="middle">Jan 13</text>
<text class="dg-s" x="449" y="398" font-size="13" font-weight="800" fill="#fff" text-anchor="end">3.4 h</text>
<text class="dg-s" x="553" y="403" font-size="14" font-weight="800" fill="#12184A">$2.70</text>
<rect class="dg-bl" x="326.2" y="414" width="128.8" height="13" rx="4" fill="#006D77" style="animation-delay:1.08s"/>
<rect class="dg-bl" x="325.8" y="429" width="129.2" height="6" rx="3" fill="#A6E22E" style="animation-delay:1.08s"/>
<rect class="dg-br" x="545" y="414" width="128.8" height="21" rx="5" fill="#FF4FB0" style="animation-delay:1.08s"/>
<text class="dg-m" x="500" y="430" font-size="14" font-weight="800" fill="#12184A" text-anchor="middle">Jan 14</text>
<text class="dg-s" x="449" y="425" font-size="13" font-weight="800" fill="#fff" text-anchor="end">2.8 h</text>
<text class="dg-s" x="553" y="430" font-size="14" font-weight="800" fill="#12184A">$2.30</text>
<rect class="dg-bl" x="197.4" y="441" width="257.6" height="13" rx="4" fill="#006D77" style="animation-delay:1.26s"/>
<rect class="dg-bl" x="196.6" y="456" width="258.4" height="6" rx="3" fill="#A6E22E" style="animation-delay:1.26s"/>
<rect class="dg-br" x="545" y="441" width="252.0" height="21" rx="5" fill="#FF4FB0" style="animation-delay:1.26s"/>
<text class="dg-m" x="500" y="457" font-size="14" font-weight="800" fill="#12184A" text-anchor="middle">Jan 15</text>
<text class="dg-s" x="449" y="452" font-size="13" font-weight="800" fill="#fff" text-anchor="end">5.6 h</text>
<text class="dg-s" x="553" y="457" font-size="14" font-weight="800" fill="#12184A">$4.50</text>
</svg>